<svg xmlns="http://www.w3.org/2000/svg" width="14" height="15" id="footer-viber" viewBox="0 0 14 15" fill="none">
  <path d="M6.90042 2.69116C6.8503 2.69116 6.80223 2.71107 6.76678 2.74652C6.73134 2.78196 6.71143 2.83004 6.71143 2.88016C6.71143 2.93029 6.73134 2.97836 6.76678 3.01381C6.80223 3.04925 6.8503 3.06916 6.90042 3.06916C8.80043 3.08366 10.3669 4.38366 10.3839 6.76916C10.3843 6.81856 10.4043 6.86577 10.4395 6.90042C10.457 6.91758 10.4776 6.93113 10.5003 6.94031C10.523 6.94949 10.5472 6.95411 10.5717 6.95391C10.5961 6.95372 10.6203 6.9487 10.6428 6.93916C10.6654 6.92962 10.6858 6.91573 10.7029 6.8983C10.7201 6.88087 10.7336 6.86022 10.7428 6.83755C10.752 6.81488 10.7566 6.79062 10.7564 6.76616C10.7349 4.19566 9.02542 2.70566 6.90042 2.69116Z" fill="white"/>
  <path d="M9.77249 6.38175C9.77136 6.43108 9.75069 6.47794 9.71501 6.51203C9.67933 6.54611 9.63157 6.56463 9.58224 6.5635C9.53291 6.56237 9.48605 6.5417 9.45196 6.50602C9.41788 6.47034 9.39936 6.42258 9.40049 6.37325C9.42097 6.0746 9.37949 5.77493 9.27866 5.49307C9.17783 5.21121 9.01982 4.95323 8.81455 4.73533C8.60928 4.51744 8.36119 4.34432 8.08584 4.22686C7.81049 4.1094 7.51384 4.05012 7.21449 4.05275C7.16522 4.04819 7.1197 4.02453 7.08764 3.98684C7.05558 3.94915 7.03953 3.90042 7.04293 3.85106C7.04632 3.80169 7.06889 3.75562 7.10581 3.72267C7.14272 3.68973 7.19106 3.67253 7.24049 3.67475C7.58748 3.67654 7.93044 3.74913 8.2484 3.88807C8.56636 4.02701 8.85261 4.22938 9.08964 4.4828C9.32668 4.73621 9.50949 5.03533 9.62691 5.36185C9.74432 5.68837 9.79386 6.03542 9.77249 6.38175Z" fill="white"/>
  <path d="M9.00053 7.98467C8.88081 7.90825 8.73772 7.87713 8.59707 7.89693C8.45643 7.91674 8.32749 7.98616 8.23353 8.09267L7.95653 8.44267C7.90516 8.49705 7.84223 8.5392 7.7724 8.56603C7.70256 8.59285 7.6276 8.60367 7.55303 8.59767C6.97503 8.4203 6.45021 8.10196 6.02585 7.67131C5.60148 7.24066 5.29089 6.71122 5.12203 6.13067C5.11579 6.05562 5.12598 5.9801 5.15189 5.90939C5.17779 5.83867 5.21879 5.77444 5.27203 5.72117L5.61803 5.44017C5.7234 5.34294 5.79162 5.21204 5.81096 5.06998C5.83031 4.92791 5.79957 4.78354 5.72403 4.66167C5.49823 4.24798 5.23049 3.8586 4.92503 3.49967C4.86653 3.43017 4.81753 3.37167 4.77803 3.31717C4.69804 3.21591 4.5832 3.14808 4.4559 3.12691C4.32861 3.10574 4.19799 3.13275 4.08953 3.20267H4.08353C3.53353 3.51867 2.93053 4.11017 3.12303 4.71867C3.18003 4.83017 3.24553 4.98367 3.32303 5.16867C3.87141 6.63638 4.78688 7.93901 5.98203 8.95217C6.87386 9.65105 7.86779 10.2087 8.92903 10.6057L8.93503 10.6142C9.53503 10.8102 10.1175 10.1957 10.4285 9.63917V9.63467C10.4961 9.52666 10.5224 9.39785 10.5026 9.27198C10.4827 9.14611 10.4181 9.03165 10.3205 8.94967C9.91705 8.58082 9.47442 8.25722 9.00053 7.98467Z" fill="white"/>
  <path d="M8.4428 6.06081C8.45627 5.93151 8.44156 5.80082 8.3997 5.67775C8.35783 5.55467 8.2898 5.44213 8.20028 5.34786C8.11076 5.25359 8.00188 5.17983 7.88113 5.13166C7.76038 5.08349 7.63063 5.06205 7.50081 5.06881C7.45068 5.06609 7.40369 5.04358 7.37016 5.00621C7.33664 4.96884 7.31934 4.91969 7.32206 4.86956C7.32477 4.81944 7.34729 4.77244 7.38466 4.73892C7.42203 4.7054 7.47118 4.68809 7.52131 4.69081C7.69735 4.68648 7.87236 4.71897 8.03512 4.78622C8.19788 4.85347 8.34478 4.95398 8.46643 5.08132C8.58807 5.20866 8.68176 5.36001 8.74149 5.52567C8.80123 5.69133 8.82569 5.86765 8.81331 6.04331C8.81729 6.06916 8.8158 6.09556 8.80892 6.12079C8.80204 6.14602 8.78993 6.16953 8.77338 6.18978C8.75683 6.21003 8.7362 6.22657 8.71284 6.23833C8.68948 6.25009 8.66391 6.2568 8.63778 6.25803C8.61166 6.25927 8.58557 6.25499 8.5612 6.24549C8.53684 6.23598 8.51474 6.22146 8.49636 6.20286C8.47797 6.18426 8.4637 6.162 8.45447 6.13753C8.44525 6.11306 8.44127 6.08692 8.4428 6.06081Z" fill="white"/>
  <path fill-rule="evenodd" clip-rule="evenodd" d="M13.8576 8.68327C14.3131 4.91977 13.6386 2.54377 12.4221 1.46877C10.4581 -0.366228 3.8261 -0.638227 1.4766 1.55127C0.421602 2.62227 0.0501023 4.19377 0.00910232 6.13977C-0.0318977 8.08577 -0.0798979 11.7323 3.3826 12.7213H3.3856L3.3826 14.2318C3.3826 14.2318 3.3591 14.8438 3.7576 14.9668C4.1866 15.1033 4.3946 14.8593 5.6006 13.4433L5.8366 13.1668C7.31013 13.3046 8.79634 13.1937 10.2331 12.8388C10.2756 12.8248 10.3361 12.8093 10.4116 12.7888C11.1776 12.5923 13.4591 12.0038 13.8576 8.68327ZM6.0706 12.1038C6.0706 12.1038 4.5706 13.9393 4.1041 14.4153C3.9516 14.5703 3.7841 14.5558 3.7866 14.2488C3.7866 14.0488 3.7981 11.7408 3.7981 11.7408C0.963602 10.9438 1.0276 8.02127 1.0636 6.35877C1.0636 6.29977 1.0661 6.24177 1.0671 6.18627C1.0991 4.56127 1.4016 3.23077 2.2951 2.33627C4.3561 0.439773 10.1706 0.863773 11.6521 2.23027C13.3021 3.66427 12.9146 7.48027 12.8346 8.26877C12.8266 8.34627 12.8216 8.39477 12.8221 8.40827C12.4871 11.1488 10.6746 11.5783 10.0221 11.7328C9.9501 11.7498 9.8921 11.7638 9.8521 11.7768C8.61643 12.0827 7.34045 12.193 6.0706 12.1038Z" fill="white"/>
</svg>