<svg xmlns="http://www.w3.org/2000/svg" width="14" height="15" id="footer-whats" viewBox="0 0 14 15" fill="none">
  <path fill-rule="evenodd" clip-rule="evenodd" d="M7.03122 14.8709H7.02855C5.86461 14.8709 4.71921 14.5598 3.69703 13.966L0.000488281 14.9999L0.989502 11.1469C0.22368 9.72891 -0.0821827 8.08107 0.119332 6.45882C0.320847 4.83657 1.01848 3.33054 2.10408 2.1742C3.18968 1.01786 4.60261 0.275818 6.12382 0.0630982C7.64502 -0.149621 9.18954 0.178869 10.5179 0.997644C11.8463 1.81642 12.8843 3.07974 13.4711 4.59176C14.0578 6.10378 14.1606 7.78003 13.7633 9.36065C13.3661 10.9413 12.491 12.338 11.2739 13.3342C10.0567 14.3304 8.56544 14.8706 7.03122 14.8709ZM3.86808 12.6195L4.08123 12.7537C4.97398 13.3178 5.99252 13.6154 7.03015 13.6153C8.31476 13.6157 9.56308 13.1608 10.5789 12.3221C11.5947 11.4834 12.3204 10.3084 12.642 8.98183C12.9635 7.65526 12.8626 6.25234 12.3552 4.99358C11.8478 3.73481 10.9626 2.69159 9.83875 2.02788C8.71491 1.36418 7.41615 1.11762 6.14662 1.32697C4.87709 1.53632 3.70878 2.1897 2.82533 3.18442C1.94187 4.17914 1.39337 5.45879 1.26603 6.82222C1.13869 8.18566 1.43974 9.55557 2.12186 10.7166L2.25934 10.9502L1.67318 13.2305L3.86808 12.6195ZM10.5434 9.20363C10.4997 9.12634 10.3835 9.07973 10.2098 8.98652C10.0361 8.8933 9.17923 8.44429 9.01937 8.38234C8.85951 8.32038 8.74334 8.28913 8.62717 8.47555C8.51101 8.66198 8.17743 9.0803 8.07565 9.2042C7.97387 9.32811 7.87262 9.34402 7.69838 9.25081C7.18471 9.0327 6.71064 8.72073 6.29745 8.32891C5.91682 7.95299 5.59053 7.51896 5.32922 7.04098C5.22744 6.85513 5.31856 6.7568 5.40542 6.66188C5.48375 6.57833 5.57967 6.44476 5.66653 6.3362C5.73818 6.24235 5.79686 6.13804 5.84078 6.02644C5.86407 5.97519 5.87495 5.91854 5.87244 5.86165C5.86993 5.80476 5.8541 5.74945 5.82639 5.70077C5.7827 5.60755 5.43473 4.69305 5.28926 4.32133C5.14804 3.95928 5.00417 4.00816 4.89759 4.00247C4.79102 3.99679 4.67965 3.99565 4.56401 3.99565C4.47571 3.99807 4.38883 4.01997 4.30886 4.05998C4.22888 4.09999 4.15755 4.15724 4.09935 4.22812C3.9024 4.42715 3.74648 4.66776 3.64152 4.93462C3.53656 5.20148 3.48487 5.48872 3.48974 5.77806C3.54646 6.47882 3.79369 7.14668 4.20113 7.69972C4.94818 8.89422 5.97358 9.86101 7.17669 10.5052C7.50091 10.6541 7.83229 10.7847 8.16944 10.8962C8.52479 11.0116 8.90049 11.0369 9.26662 10.9701C9.50909 10.9174 9.73869 10.8116 9.94099 10.6596C10.1433 10.5076 10.3139 10.3126 10.4421 10.0869C10.5562 9.80917 10.5916 9.50195 10.5439 9.20306L10.5434 9.20363Z" fill="#FDFDFD"/>
</svg>