<svg xmlns="http://www.w3.org/2000/svg" width="14" height="14" id="locator-footer" viewBox="0 0 14 14" fill="none">
  <path d="M6.65589 12.7108C6.75752 12.7901 6.88277 12.8333 7.01172 12.8333C7.14067 12.8333 7.26592 12.7901 7.36755 12.7108C8.47589 11.8649 11.7484 9.10576 11.7309 5.89159C11.7309 3.28993 9.61339 1.16659 7.00589 1.16659C4.39839 1.16659 2.28089 3.28409 2.28089 5.88576C2.27505 9.05326 5.55339 11.8591 6.65589 12.7108Z" stroke="white" stroke-miterlimit="10"/>
  <path d="M5.76256 4.59581C6.09075 4.26763 6.53587 4.08325 7 4.08325C7.46413 4.08325 7.90925 4.26763 8.23744 4.59581C8.56563 4.924 8.75 5.36912 8.75 5.83325C8.75 6.29738 8.56563 6.7425 8.23744 7.07069C7.90925 7.39888 7.46413 7.58325 7 7.58325C6.53587 7.58325 6.09075 7.39888 5.76256 7.07069C5.43437 6.7425 5.25 6.29738 5.25 5.83325C5.25 5.36912 5.43437 4.924 5.76256 4.59581Z" stroke="white" stroke-miterlimit="10"/>
</svg>