<svg width="70" height="74" id="Logo" viewBox="0 0 70 74" fill="none" xmlns="http://www.w3.org/2000/svg">
<path fill-rule="evenodd" clip-rule="evenodd" d="M15.5959 18.6751C18.3896 20.2773 18.2221 21.4802 19.907 22.7814C24.4781 26.3118 31.6217 28.2779 37.4259 28.3584L49.1765 21.7437L52.0971 19.0444C51.9142 18.4062 51.9687 17.7122 51.8182 17.2553C51.664 16.7869 51.3024 16.5611 50.9504 16.4109C50.8145 16.3531 50.7677 16.3006 50.5671 16.3056C37.4527 16.634 24.1332 16.2394 21.9005 9.35622L19.7303 14.3062L15.5959 18.6751Z" fill="#023497"/>
<path fill-rule="evenodd" clip-rule="evenodd" d="M27.5066 40.6182C29.7382 41.8981 33.3684 43.5696 36.7111 48.3164L38.2932 39.5512C34.7131 35.3399 33.6531 35.6404 31.4224 34.6165L28.8206 37.8L27.5066 40.6182Z" fill="#023497"/>
<mask id="mask0_655_1026" style="mask-type:luminance" maskUnits="userSpaceOnUse" x="12" y="0" width="46" height="23">
<path d="M57.8843 3.68454C43.1038 5.58944 16.5567 5.17219 19.907 22.7812C-5.20189 3.1774 36.5688 -5.53454 57.8843 3.68454Z" fill="white"/>
</mask>
<g mask="url(#mask0_655_1026)">
<path fill-rule="evenodd" clip-rule="evenodd" d="M57.8843 3.68454C43.1038 5.58944 16.5567 5.17219 19.907 22.7812C-5.20189 3.1774 36.5688 -5.53454 57.8843 3.68454Z" fill="url(#paint0_linear_655_1026)"/>
</g>
<mask id="mask1_655_1026" style="mask-type:luminance" maskUnits="userSpaceOnUse" x="23" y="16" width="30" height="25">
<path d="M50.7252 16.3024C51.9273 16.9705 52.2128 17.1276 52.4685 18.2659C55.8162 33.1657 35.6436 33.8284 27.5065 40.6182C18.8569 33.1133 26.4651 25.6938 39.9926 23.4764C45.9658 22.4973 50.6442 19.6178 51.6795 17.7806C52.0956 17.042 51.3049 16.563 50.7252 16.3024Z" fill="white"/>
</mask>
<g mask="url(#mask1_655_1026)">
<path fill-rule="evenodd" clip-rule="evenodd" d="M50.7252 16.3024C51.9273 16.9705 52.2128 17.1276 52.4685 18.2659C55.8162 33.1657 35.6436 33.8284 27.5065 40.6182C18.8569 33.1133 26.4651 25.6938 39.9926 23.4764C45.9658 22.4973 50.6442 19.6178 51.6795 17.7806C52.0956 17.042 51.3049 16.563 50.7252 16.3024Z" fill="url(#paint1_linear_655_1026)"/>
</g>
<mask id="mask2_655_1026" style="mask-type:luminance" maskUnits="userSpaceOnUse" x="33" y="36" width="7" height="18">
<path d="M33.96 54C37.2011 46.3751 36.1499 43.074 35.6898 36.88C42.4509 41.9953 40.385 49.9493 33.96 54Z" fill="white"/>
</mask>
<g mask="url(#mask2_655_1026)">
<path fill-rule="evenodd" clip-rule="evenodd" d="M33.96 54C37.2011 46.3751 36.1499 43.074 35.6898 36.88C42.4509 41.9953 40.385 49.9493 33.96 54Z" fill="url(#paint2_linear_655_1026)"/>
</g>
<path fill-rule="evenodd" clip-rule="evenodd" d="M50.7251 16.3026C51.1547 16.6482 52.0087 17.2463 51.6795 17.7807C50.5783 19.5688 45.3022 21.8832 44.0637 22.2208C42.5062 22.6455 41.0892 23.0978 39.6915 23.4512C38.0356 23.87 36.4224 24.1855 34.8656 24.6456C32.6571 25.2981 30.4285 25.9838 28.3472 27.5361C29.8951 26.7464 32.3106 25.7712 34.9761 25.032C38.0744 24.1727 41.5253 23.5391 44.5679 22.4415C50.3689 20.3485 54.5336 17.5629 50.7251 16.3026Z" fill="#4EE4F2"/>
<path fill-rule="evenodd" clip-rule="evenodd" d="M35.7317 36.8898C35.9566 39.6253 36.705 45.5479 35.7136 48.7581C36.2128 44.5861 35.9008 40.8214 35.7317 36.8898Z" fill="#4EE4F2"/>
<path fill-rule="evenodd" clip-rule="evenodd" d="M57.8843 3.6847C56.4792 3.83037 54.9825 4.03446 53.4176 4.19491C51.5341 4.38787 49.5518 4.54086 47.525 4.7535C38.9001 5.65831 29.503 7.11845 23.6149 11.4332C19.2885 14.6034 19.4279 18.3809 20.152 22.9673C14.2663 3.07732 44.9302 4.19809 57.8843 3.6847Z" fill="#4EE4F2"/>
<path d="M1.3125 69V59.0059H8.98926V69H7.3623V60.4004H2.95312V69H1.3125ZM18.1699 65.1992C18.1699 65.8281 18.0879 66.3864 17.9238 66.874C17.7598 67.3617 17.5205 67.7741 17.2061 68.1113C16.8916 68.444 16.5133 68.6992 16.0713 68.877C15.6292 69.0501 15.1302 69.1367 14.5742 69.1367C14.0547 69.1367 13.5785 69.0501 13.1455 68.877C12.7126 68.6992 12.3366 68.444 12.0176 68.1113C11.7031 67.7741 11.4593 67.3617 11.2861 66.874C11.113 66.3864 11.0264 65.8281 11.0264 65.1992C11.0264 64.3652 11.1699 63.6589 11.457 63.0801C11.7487 62.4967 12.1634 62.0524 12.7012 61.7471C13.2389 61.4417 13.8792 61.2891 14.6221 61.2891C15.3193 61.2891 15.9346 61.4417 16.4678 61.7471C17.001 62.0524 17.418 62.4967 17.7188 63.0801C18.0195 63.6634 18.1699 64.3698 18.1699 65.1992ZM12.6807 65.1992C12.6807 65.7507 12.7467 66.2223 12.8789 66.6143C13.0156 67.0062 13.2253 67.307 13.5078 67.5166C13.7904 67.7217 14.1549 67.8242 14.6016 67.8242C15.0482 67.8242 15.4128 67.7217 15.6953 67.5166C15.9779 67.307 16.1852 67.0062 16.3174 66.6143C16.4495 66.2223 16.5156 65.7507 16.5156 65.1992C16.5156 64.6478 16.4495 64.1807 16.3174 63.7979C16.1852 63.4105 15.9779 63.1165 15.6953 62.916C15.4128 62.7109 15.0459 62.6084 14.5947 62.6084C13.9294 62.6084 13.444 62.8317 13.1387 63.2783C12.8333 63.7249 12.6807 64.3652 12.6807 65.1992ZM23.0645 69.1367C22.349 69.1367 21.7292 68.9977 21.2051 68.7197C20.681 68.4417 20.2777 68.0156 19.9951 67.4414C19.7126 66.8672 19.5713 66.138 19.5713 65.2539C19.5713 64.3333 19.7262 63.5814 20.0361 62.998C20.346 62.4147 20.7744 61.984 21.3213 61.7061C21.8727 61.4281 22.5039 61.2891 23.2148 61.2891C23.666 61.2891 24.0739 61.3346 24.4385 61.4258C24.8076 61.5124 25.1198 61.6195 25.375 61.7471L24.8965 63.0322C24.6185 62.9183 24.3337 62.8226 24.042 62.7451C23.7503 62.6676 23.4701 62.6289 23.2012 62.6289C22.7591 62.6289 22.39 62.7269 22.0938 62.9229C21.8021 63.1188 21.5833 63.4105 21.4375 63.7979C21.2962 64.1852 21.2256 64.666 21.2256 65.2402C21.2256 65.7962 21.2985 66.2656 21.4443 66.6484C21.5902 67.0267 21.8066 67.3138 22.0938 67.5098C22.3809 67.7012 22.734 67.7969 23.1533 67.7969C23.568 67.7969 23.9395 67.7467 24.2676 67.6465C24.5957 67.5462 24.9056 67.4163 25.1973 67.2568V68.6514C24.9102 68.8154 24.6025 68.9362 24.2744 69.0137C23.9463 69.0957 23.543 69.1367 23.0645 69.1367ZM29.9893 61.2891C30.6637 61.2891 31.2425 61.4281 31.7256 61.7061C32.2087 61.984 32.5801 62.3783 32.8398 62.8887C33.0996 63.3991 33.2295 64.0098 33.2295 64.7207V65.582H28.1777C28.196 66.3158 28.3919 66.8809 28.7656 67.2773C29.1439 67.6738 29.6725 67.8721 30.3516 67.8721C30.8346 67.8721 31.2676 67.8265 31.6504 67.7354C32.0378 67.6396 32.4365 67.5007 32.8467 67.3184V68.624C32.4684 68.8018 32.0833 68.9316 31.6914 69.0137C31.2995 69.0957 30.8301 69.1367 30.2832 69.1367C29.5404 69.1367 28.8864 68.9932 28.3213 68.7061C27.7607 68.4144 27.321 67.9814 27.002 67.4072C26.6875 66.833 26.5303 66.1198 26.5303 65.2676C26.5303 64.4199 26.6738 63.6999 26.9609 63.1074C27.248 62.515 27.6514 62.0638 28.1709 61.7539C28.6904 61.444 29.2965 61.2891 29.9893 61.2891ZM29.9893 62.499C29.4834 62.499 29.0732 62.6631 28.7588 62.9912C28.4489 63.3193 28.2666 63.8001 28.2119 64.4336H31.6572C31.6527 64.0553 31.5889 63.7204 31.4658 63.4287C31.3473 63.137 31.165 62.9092 30.9189 62.7451C30.6774 62.5811 30.3675 62.499 29.9893 62.499ZM36.5859 61.4326V65.2949C36.5859 65.418 36.5814 65.5752 36.5723 65.7666C36.5677 65.9535 36.5586 66.1494 36.5449 66.3545C36.5312 66.555 36.5176 66.7396 36.5039 66.9082C36.4902 67.0768 36.4788 67.2021 36.4697 67.2842L40.2773 61.4326H42.2324V69H40.6943V65.1787C40.6943 64.9782 40.6989 64.7458 40.708 64.4814C40.7217 64.2171 40.7354 63.9619 40.749 63.7158C40.7673 63.4697 40.7786 63.2829 40.7832 63.1553L36.9893 69H35.041V61.4326H36.5859ZM41.665 58.2471C41.6195 58.7165 41.4919 59.1221 41.2822 59.4639C41.0771 59.8011 40.765 60.0609 40.3457 60.2432C39.9264 60.4255 39.375 60.5166 38.6914 60.5166C37.985 60.5166 37.4268 60.43 37.0166 60.2568C36.6064 60.0791 36.3102 59.8216 36.1279 59.4844C35.9456 59.1426 35.8363 58.7301 35.7998 58.2471H37.2627C37.3083 58.7529 37.4404 59.0947 37.6592 59.2725C37.8779 59.4456 38.2311 59.5322 38.7188 59.5322C39.138 59.5322 39.473 59.4388 39.7236 59.252C39.9788 59.0651 40.1315 58.7301 40.1816 58.2471H41.665ZM50.7227 61.4326V67.7559H51.8164V71.666H50.333V69H45.1104V71.666H43.627V67.7559H44.2422C44.625 67.1999 44.944 66.5801 45.1992 65.8965C45.459 65.2129 45.6595 64.4928 45.8008 63.7363C45.9466 62.9753 46.0378 62.2074 46.0742 61.4326H50.7227ZM49.1299 62.6631H47.4551C47.4004 63.2783 47.307 63.8913 47.1748 64.502C47.0426 65.1081 46.8717 65.6891 46.6621 66.2451C46.457 66.7965 46.2109 67.3001 45.9238 67.7559H49.1299V62.6631ZM59.9238 65.1992C59.9238 65.8281 59.8418 66.3864 59.6777 66.874C59.5137 67.3617 59.2744 67.7741 58.96 68.1113C58.6455 68.444 58.2673 68.6992 57.8252 68.877C57.3831 69.0501 56.8841 69.1367 56.3281 69.1367C55.8086 69.1367 55.3324 69.0501 54.8994 68.877C54.4665 68.6992 54.0905 68.444 53.7715 68.1113C53.457 67.7741 53.2132 67.3617 53.04 66.874C52.8669 66.3864 52.7803 65.8281 52.7803 65.1992C52.7803 64.3652 52.9238 63.6589 53.2109 63.0801C53.5026 62.4967 53.9173 62.0524 54.4551 61.7471C54.9928 61.4417 55.6331 61.2891 56.376 61.2891C57.0732 61.2891 57.6885 61.4417 58.2217 61.7471C58.7549 62.0524 59.1719 62.4967 59.4727 63.0801C59.7734 63.6634 59.9238 64.3698 59.9238 65.1992ZM54.4346 65.1992C54.4346 65.7507 54.5007 66.2223 54.6328 66.6143C54.7695 67.0062 54.9792 67.307 55.2617 67.5166C55.5443 67.7217 55.9089 67.8242 56.3555 67.8242C56.8021 67.8242 57.1667 67.7217 57.4492 67.5166C57.7318 67.307 57.9391 67.0062 58.0713 66.6143C58.2035 66.2223 58.2695 65.7507 58.2695 65.1992C58.2695 64.6478 58.2035 64.1807 58.0713 63.7979C57.9391 63.4105 57.7318 63.1165 57.4492 62.916C57.1667 62.7109 56.7998 62.6084 56.3486 62.6084C55.6833 62.6084 55.1979 62.8317 54.8926 63.2783C54.5872 63.7249 54.4346 64.3652 54.4346 65.1992ZM63.3828 61.4326V64.4746H66.9238V61.4326H68.5371V69H66.9238V65.7324H63.3828V69H61.7695V61.4326H63.3828Z" fill="#122264"/>
<defs>
<linearGradient id="paint0_linear_655_1026" x1="12.1163" y1="11.3906" x2="57.8843" y2="11.3906" gradientUnits="userSpaceOnUse">
<stop stop-color="#052FC3"/>
<stop offset="1" stop-color="#1A89F3"/>
</linearGradient>
<linearGradient id="paint1_linear_655_1026" x1="23.8304" y1="28.4602" x2="52.8397" y2="28.4602" gradientUnits="userSpaceOnUse">
<stop stop-color="#052FC3"/>
<stop offset="1" stop-color="#1A89F3"/>
</linearGradient>
<linearGradient id="paint2_linear_655_1026" x1="33.9596" y1="45.4396" x2="39.8704" y2="45.4396" gradientUnits="userSpaceOnUse">
<stop stop-color="#052FC3"/>
<stop offset="1" stop-color="#1A89F3"/>
</linearGradient>
</defs>
</svg>
