<svg xmlns="http://www.w3.org/2000/svg" width="60" height="60" id="promo-list-item-3" viewBox="0 0 60 60" fill="none">
  <path d="M54.4318 32.5992C54.1318 29.0992 52.9318 21.7992 48.1318 16.6992C43.3318 11.5992 35.3318 9.89922 31.6318 9.19922M31.6318 9.19922L34.6318 4.69922M31.6318 9.19922L34.6318 13.6992M21.3782 12.4163C18.3996 14.2784 12.4488 18.6736 10.0969 25.2705C7.74498 31.8673 9.87787 39.7629 10.9411 43.3754M10.9411 43.3754L5.56836 42.756M10.9411 43.3754L13.5793 38.6541M19.7633 52.3018C22.9444 53.792 29.8664 56.4028 36.6831 54.7959C43.4998 53.1889 48.9721 47.1107 51.4283 44.2564M51.4283 44.2564L53.8254 49.1045M51.4283 44.2564L46.0312 44.6045" stroke="#3966F4" stroke-width="2" stroke-linecap="round"/>
  <path d="M40.2002 34.8C40.2002 39.7706 36.1708 43.8 31.2002 43.8C26.2296 43.8 22.2002 39.7706 22.2002 34.8C22.2002 29.8295 31.2002 19.8 31.2002 19.8C31.2002 19.8 40.2002 29.8295 40.2002 34.8Z" stroke="#2B50ED"/>
</svg>