<svg xmlns="http://www.w3.org/2000/svg" width="60" height="60" id="promo-list-item-1" viewBox="0 0 60 60" fill="none">
  <path d="M4.94995 9.75C4.94995 9.75 7.49995 10.5 11.4 12C15.3 13.5 17.85 15.3 17.85 18.45C17.85 21.6 17.85 48.3 17.85 52.65C17.85 57 24 59.25 28.9499 59.25C33.8999 59.25 41.8499 57.6 41.8499 52.65C41.8499 47.7 41.8499 21 41.8499 18.45C41.8499 15.9 43.4999 13.5 48.4499 12C53.3999 10.5 55.0499 9.75 55.0499 9.75" stroke="#3966F4" stroke-linecap="round"/>
  <path d="M34.5299 17.548L25.4699 23.7788V20.4496L31.3348 15.9755L31.6299 15.7504V15.3792V8.72578L34.5299 3.0945V17.548ZM24.1499 28.1873L35.8499 20.9928V24.3583L24.1499 31.5528V28.1873ZM25.4699 35.0112L34.5299 29.1469V32.4865L25.4699 38.3507V35.0112ZM26.7899 45.1229V41.8285L33.2099 37.3267V40.6211L26.7899 45.1229ZM27.6699 51.8845V48.6448L32.3299 45.0899V48.3296L27.6699 51.8845Z" stroke="#2B50ED" stroke-width="1.5"/>
</svg>