<svg xmlns="http://www.w3.org/2000/svg" width="60" height="60" id="promo-list-item-2" viewBox="0 0 60 60" fill="none">
  <path d="M52.0499 17.1155L56.8499 21.0155M56.8499 21.0155L52.0499 24.9155M56.8499 21.0155H47.2499C45.1499 21.0155 44.2499 22.2184 44.2499 23.7155V51.3154C44.2499 57.3155 37.9499 56.4154 37.9499 51.3154V23.7155C37.9499 18.6155 30.7499 18.6154 30.7499 23.7155V51.3154C30.7499 56.4154 24.1499 56.4154 24.1499 51.3154V23.7155C24.1499 19.2155 17.2499 18.9155 17.2499 23.7155V51.3154C17.2499 56.4154 10.3499 56.1154 10.3499 51.3154V23.7155C10.3499 22.1806 8.8499 21.0155 7.0499 21.0155H3.1499" stroke="#3966F4" stroke-width="2" stroke-linecap="round"/>
  <path d="M10.6499 15.3154C11.2499 14.9154 12.4499 13.7554 12.4499 12.3154C12.4499 10.5154 10.6499 10.5154 10.6499 8.11538C10.6499 6.19538 12.2499 5.11538 13.0499 4.51538M18.4499 15.3154C19.0499 14.9154 20.2499 13.7554 20.2499 12.3154C20.2499 10.5154 18.4499 10.5154 18.4499 8.11538C18.4499 6.19538 20.0499 5.11538 20.8499 4.51538M26.2499 15.3154C26.8499 14.9154 28.0499 13.7554 28.0499 12.3154C28.0499 10.5154 26.2499 10.5154 26.2499 8.11538C26.2499 6.19538 27.8499 5.11538 28.6499 4.51538M34.0499 15.3154C34.6499 14.9154 35.8499 13.7554 35.8499 12.3154C35.8499 10.5154 34.0499 10.5154 34.0499 8.11538C34.0499 6.19538 35.6499 5.11538 36.4499 4.51538M41.8499 15.3154C42.4499 14.9154 43.6499 13.7554 43.6499 12.3154C43.6499 10.5154 41.8499 10.5154 41.8499 8.11538C41.8499 6.19538 43.4499 5.11538 44.2499 4.51538" stroke="#3966F4" stroke-linecap="round"/>
</svg>