<svg xmlns="http://www.w3.org/2000/svg" width="14" height="14" id="tel-footer" viewBox="0 0 14 14" fill="none">
  <g clip-path="url(#clip0_712_998)">
    <path d="M12.8157 10.6926C12.8157 10.9026 12.769 11.1184 12.6698 11.3284C12.5707 11.5384 12.4423 11.7367 12.2732 11.9234C11.9873 12.2384 11.6723 12.4659 11.3165 12.6117C10.9665 12.7576 10.5873 12.8334 10.179 12.8334C9.584 12.8334 8.94817 12.6934 8.27734 12.4076C7.6065 12.1217 6.93567 11.7367 6.27067 11.2526C5.5929 10.7568 4.95332 10.2108 4.35734 9.61925C3.76745 9.02542 3.2234 8.38776 2.72984 7.71175C2.2515 7.04675 1.8665 6.38175 1.5865 5.72258C1.3065 5.05758 1.1665 4.42175 1.1665 3.81508C1.1665 3.41841 1.2365 3.03925 1.3765 2.68925C1.5165 2.33341 1.73817 2.00675 2.04734 1.71508C2.42067 1.34758 2.829 1.16675 3.26067 1.16675C3.424 1.16675 3.58734 1.20175 3.73317 1.27175C3.88484 1.34175 4.019 1.44675 4.124 1.59841L5.47734 3.50591C5.58234 3.65175 5.65817 3.78591 5.71067 3.91425C5.76317 4.03675 5.79234 4.15925 5.79234 4.27008C5.79234 4.41008 5.7515 4.55008 5.66984 4.68425C5.594 4.81841 5.48317 4.95841 5.34317 5.09841L4.89984 5.55925C4.83567 5.62341 4.8065 5.69925 4.8065 5.79258C4.8065 5.83925 4.81234 5.88008 4.824 5.92675C4.8415 5.97341 4.859 6.00841 4.87067 6.04341C4.97567 6.23591 5.1565 6.48675 5.41317 6.79008C5.67567 7.09341 5.95567 7.40258 6.259 7.71175C6.574 8.02091 6.87734 8.30675 7.1865 8.56925C7.48984 8.82591 7.74067 9.00091 7.939 9.10591C7.96817 9.11758 8.00317 9.13508 8.044 9.15258C8.09067 9.17008 8.13734 9.17591 8.18984 9.17591C8.289 9.17591 8.36484 9.14091 8.429 9.07675L8.87234 8.63925C9.01817 8.49341 9.15817 8.38258 9.29234 8.31258C9.4265 8.23091 9.56067 8.19008 9.7065 8.19008C9.81734 8.19008 9.934 8.21341 10.0623 8.26591C10.1907 8.31841 10.3248 8.39425 10.4707 8.49341L12.4015 9.86425C12.5532 9.96925 12.6582 10.0917 12.7223 10.2376C12.7807 10.3834 12.8157 10.5292 12.8157 10.6926Z" stroke="white" stroke-miterlimit="10"/>
  </g>
  <defs>
    <clipPath id="clip0_712_998">
      <rect width="14" height="14" fill="white"/>
    </clipPath>
  </defs>
</svg>