<svg width="24" height="24" id="viber" viewBox="0 0 24 24" fill="none" xmlns="http://www.w3.org/2000/svg">
<g clip-path="url(#clip0_651_1072)">
<path fill-rule="evenodd" clip-rule="evenodd" d="M12 0C14.3734 0 16.6935 0.703788 18.6668 2.02236C20.6402 3.34094 22.1783 5.21509 23.0866 7.4078C23.9948 9.60051 24.2324 12.0133 23.7694 14.3411C23.3064 16.6689 22.1635 18.8071 20.4853 20.4853C18.8071 22.1635 16.6689 23.3064 14.3411 23.7694C12.0133 24.2324 9.60051 23.9948 7.4078 23.0866C5.21509 22.1783 3.34094 20.6402 2.02236 18.6668C0.703788 16.6935 0 14.3734 0 12C0 8.8174 1.26428 5.76516 3.51472 3.51472C5.76516 1.26428 8.8174 0 12 0Z" fill="#7360F2"/>
<path d="M11.8908 7.2998C11.8361 7.2998 11.7836 7.32153 11.745 7.36019C11.7063 7.39886 11.6846 7.4513 11.6846 7.50599C11.6846 7.56067 11.7063 7.61311 11.745 7.65178C11.7836 7.69045 11.8361 7.71217 11.8908 7.71217C13.9635 7.72799 15.6724 9.14617 15.6909 11.7485C15.6914 11.8024 15.7132 11.8539 15.7516 11.8917C15.7706 11.9104 15.7931 11.9252 15.8179 11.9352C15.8426 11.9452 15.8691 11.9503 15.8958 11.9501C15.9224 11.9499 15.9488 11.9444 15.9734 11.934C15.998 11.9236 16.0202 11.9084 16.0389 11.8894C16.0577 11.8704 16.0724 11.8479 16.0825 11.8231C16.0925 11.7984 16.0975 11.7719 16.0973 11.7453C16.0738 8.94108 14.2089 7.31562 11.8908 7.2998Z" fill="white"/>
<path d="M15.0241 11.3259C15.0229 11.3797 15.0003 11.4308 14.9614 11.468C14.9225 11.5052 14.8704 11.5254 14.8165 11.5241C14.7627 11.5229 14.7116 11.5003 14.6744 11.4614C14.6372 11.4225 14.617 11.3704 14.6183 11.3166C14.6406 10.9908 14.5954 10.6639 14.4854 10.3564C14.3754 10.0489 14.203 9.76747 13.9791 9.52977C13.7551 9.29206 13.4845 9.10321 13.1841 8.97507C12.8837 8.84693 12.5601 8.78226 12.2335 8.78513C12.1798 8.78015 12.1301 8.75434 12.0952 8.71323C12.0602 8.67211 12.0427 8.61895 12.0464 8.5651C12.0501 8.51125 12.0747 8.46098 12.115 8.42505C12.1553 8.38911 12.208 8.37034 12.2619 8.37277C12.6404 8.37472 13.0146 8.45391 13.3614 8.60548C13.7083 8.75705 14.0206 8.97782 14.2792 9.25427C14.5377 9.53072 14.7372 9.85704 14.8653 10.2132C14.9934 10.5694 15.0474 10.948 15.0241 11.3259Z" fill="white"/>
<path d="M14.1817 13.0746C14.0511 12.9913 13.895 12.9573 13.7416 12.9789C13.5882 13.0005 13.4475 13.0763 13.345 13.1925L13.0428 13.5743C12.9868 13.6336 12.9181 13.6796 12.8419 13.7088C12.7658 13.7381 12.684 13.7499 12.6026 13.7434C11.9721 13.5499 11.3996 13.2026 10.9366 12.7328C10.4737 12.263 10.1348 11.6854 9.95064 11.0521C9.94384 10.9702 9.95495 10.8878 9.98321 10.8107C10.0115 10.7335 10.0562 10.6635 10.1143 10.6054L10.4917 10.2988C10.6067 10.1927 10.6811 10.0499 10.7022 9.89496C10.7233 9.73998 10.6898 9.58249 10.6074 9.44954C10.361 8.99824 10.069 8.57346 9.73573 8.18191C9.67192 8.10609 9.61846 8.04227 9.57537 7.98282C9.48811 7.87234 9.36283 7.79834 9.22396 7.77525C9.08509 7.75216 8.9426 7.78162 8.82428 7.85791H8.81773C8.21773 8.20263 7.55992 8.84791 7.76992 9.51172C7.8321 9.63336 7.90355 9.80081 7.9881 10.0026C8.58633 11.6038 9.58502 13.0248 10.8888 14.1301C11.8617 14.8925 12.946 15.5009 14.1037 15.9339L14.1103 15.9432C14.7648 16.157 15.4003 15.4866 15.7396 14.8795V14.8746C15.8133 14.7568 15.842 14.6163 15.8203 14.479C15.7987 14.3417 15.7282 14.2168 15.6217 14.1274C15.1816 13.725 14.6987 13.372 14.1817 13.0746Z" fill="white"/>
<path d="M13.573 10.9757C13.5877 10.8346 13.5717 10.6921 13.526 10.5578C13.4803 10.4235 13.4061 10.3007 13.3085 10.1979C13.2108 10.0951 13.092 10.0146 12.9603 9.96205C12.8286 9.9095 12.687 9.88611 12.5454 9.8935C12.4907 9.89053 12.4395 9.86596 12.4029 9.8252C12.3663 9.78444 12.3474 9.73081 12.3504 9.67613C12.3534 9.62145 12.3779 9.57018 12.4187 9.53361C12.4595 9.49704 12.5131 9.47817 12.5678 9.48113C12.7598 9.4764 12.9507 9.51185 13.1283 9.58521C13.3058 9.65857 13.4661 9.76823 13.5988 9.90714C13.7315 10.0461 13.8337 10.2112 13.8989 10.3919C13.964 10.5726 13.9907 10.765 13.9772 10.9566C13.9816 10.9848 13.9799 11.0136 13.9724 11.0411C13.9649 11.0686 13.9517 11.0943 13.9337 11.1164C13.9156 11.1385 13.8931 11.1565 13.8676 11.1693C13.8421 11.1822 13.8142 11.1895 13.7857 11.1908C13.7572 11.1922 13.7288 11.1875 13.7022 11.1771C13.6756 11.1668 13.6515 11.1509 13.6315 11.1306C13.6114 11.1103 13.5958 11.0861 13.5858 11.0594C13.5757 11.0327 13.5714 11.0042 13.573 10.9757Z" fill="white"/>
<path fill-rule="evenodd" clip-rule="evenodd" d="M19.4802 13.8364C19.9771 9.73079 19.2413 7.13879 17.9142 5.96607C15.7716 3.96425 8.53672 3.66752 5.97363 6.05607C4.82272 7.22443 4.41745 8.93879 4.37272 11.0617C4.328 13.1846 4.27563 17.1626 8.0529 18.2415H8.05618L8.0529 19.8893C8.0529 19.8893 8.02727 20.557 8.462 20.6912C8.93 20.8401 9.15691 20.5739 10.4725 19.0292L10.73 18.7275C12.3375 18.8779 13.9588 18.7569 15.5262 18.3697C15.5725 18.3544 15.6385 18.3375 15.7209 18.3152C16.5565 18.1008 19.0455 17.4588 19.4802 13.8364ZM10.9853 17.5679C10.9853 17.5679 9.34891 19.5702 8.84 20.0895C8.67363 20.2586 8.4909 20.2428 8.49363 19.9079C8.49363 19.6897 8.50618 17.1719 8.50618 17.1719C5.414 16.3024 5.48381 13.1142 5.52309 11.3006C5.52309 11.2362 5.52581 11.173 5.5269 11.1124C5.56181 9.3397 5.89181 7.88825 6.86654 6.91243C9.11491 4.84352 15.458 5.30607 17.0742 6.79679C18.8742 8.36116 18.4514 12.5241 18.3642 13.3842C18.3554 13.4688 18.35 13.5217 18.3505 13.5364C17.9851 16.5261 16.0078 16.9946 15.296 17.1632C15.2174 17.1817 15.1542 17.197 15.1105 17.2112C13.7625 17.5449 12.3706 17.6653 10.9853 17.5679Z" fill="white"/>
</g>
<defs>
<clipPath id="clip0_651_1072">
<rect width="24" height="24" fill="white"/>
</clipPath>
</defs>
</svg>
