<svg xmlns="http://www.w3.org/2000/svg" width="52" height="62" id="warm_3" viewBox="0 0 52 62" fill="none">
  <path d="M46.1429 21.6336C46.2304 22.7271 45.6967 24.9141 42.8624 24.9141C39.8106 24.9141 17.0932 24.9141 9.00726 24.9141M3.36475 34.4933C3.36475 32.6562 3.36475 28.7196 3.36475 27.6698C3.36475 26.3576 3.49597 24.9141 6.38284 24.9141C6.78312 24.9141 7.70561 24.9141 9.00726 24.9141M3.36475 51.8145C3.36475 53.3892 3.36475 56.9321 3.36475 58.5068C3.36475 60.4751 3.88963 61 5.46429 61C7.03894 61 43.7809 61 46.1429 61C48.5049 61 51.3917 59.819 51.3917 57.3258C51.3917 54.8326 51.3917 24.258 51.3917 21.6336C51.3917 19.0092 49.4234 17.4345 47.1927 17.4345C45.408 17.4345 41.3752 17.4345 39.5818 17.4345M15.3059 17.4345C14.6935 17.4345 13.1014 17.4345 11.6317 17.4345C9.79459 17.4345 9.00726 18.0906 9.00726 19.5341C9.00726 20.6888 9.00726 23.6019 9.00726 24.9141" stroke="#2B50ED" stroke-linecap="round"/>
  <path d="M11.4324 34.4933C10.82 34.4933 5.14914 34.4933 3.36453 34.4933C1.13377 34.4933 0.608887 35.6743 0.608887 36.7241C0.608887 37.7738 0.608887 46.8281 0.608887 48.6652C0.608887 50.5023 0.871329 51.4208 3.36453 51.4208C5.85774 51.4208 8.61339 51.4208 12.9437 51.4208C17.274 51.4208 20.6857 46.6969 20.6857 43.6788C20.6857 40.6607 19.2423 34.4933 11.5003 34.4933" stroke="#2B50ED" stroke-linecap="round"/>
  <circle cx="11.8942" cy="43.0227" r="3.93664" stroke="#2B50ED"/>
  <path d="M15.4367 24.3574C15.4367 17.4027 15.4367 3.30949 15.4367 2.57466C15.4367 1.65611 15.3055 1 16.7489 1C18.1923 1 36.957 1 37.8755 1C38.7941 1 39.5814 1 39.5814 2.57466C39.5814 3.83438 39.5814 17.6214 39.5814 24.3574M24.3597 24.3574V13.0724M30.5272 24.3574V13.0724" stroke="#2B50ED" stroke-width="2" stroke-linecap="round"/>
</svg>