<svg width="62" height="62" id="warm_1" viewBox="0 0 62 62" fill="none" xmlns="http://www.w3.org/2000/svg">
<path d="M27.9443 27.9444L23.5127 23.7143" stroke="#2B50ED" stroke-linecap="round"/>
<path d="M31 10.4444V14.6111" stroke="#2B50ED" stroke-linecap="round"/>
<path d="M45.6333 16.5057L42.687 19.452" stroke="#2B50ED" stroke-linecap="round"/>
<path d="M31 47.6666V51.8333" stroke="#2B50ED" stroke-linecap="round"/>
<path d="M19.3135 42.8257L16.3672 45.772" stroke="#2B50ED" stroke-linecap="round"/>
<path d="M14.4722 31.1389L10.3055 31.1389" stroke="#2B50ED" stroke-linecap="round"/>
<path d="M19.3135 19.452L16.3672 16.5057" stroke="#2B50ED" stroke-linecap="round"/>
<path d="M39.0171 12.0603L37.403 15.9016" stroke="#2B50ED" stroke-linecap="round"/>
<path d="M50.1597 23.3171L46.3021 24.8919" stroke="#2B50ED" stroke-linecap="round"/>
<path d="M38.8218 50.2981L37.2469 46.4405" stroke="#2B50ED" stroke-linecap="round"/>
<path d="M24.5977 46.376L22.9835 50.2173" stroke="#2B50ED" stroke-linecap="round"/>
<path d="M15.6982 37.3857L11.8407 38.9606" stroke="#2B50ED" stroke-linecap="round"/>
<path d="M15.7627 24.7361L11.9214 23.122" stroke="#2B50ED" stroke-linecap="round"/>
<path d="M24.7534 15.8371L23.1786 11.9795" stroke="#2B50ED" stroke-linecap="round"/>
<path d="M55.2554 27.9444C53.7518 15.8863 43.4656 6.55556 31.0001 6.55556C17.4998 6.55556 6.55566 17.4997 6.55566 31C6.55566 44.5003 17.4998 55.4444 31.0001 55.4444C35.8769 55.4444 40.4201 54.0164 44.2343 51.5556" stroke="#2B50ED" stroke-linecap="round"/>
<path d="M60.7679 34.75C60.9211 33.5215 61 32.27 61 31C61 14.4315 47.5685 1 31 1C14.4315 1 1 14.4315 1 31C1 47.5685 14.4315 61 31 61C38.7267 61 45.7712 58.0789 51.0893 53.2808" stroke="#2B50ED" stroke-linecap="round"/>
<path d="M56.5553 40.4444C56.5553 45.0468 52.8244 48.7778 48.222 48.7778C43.6196 48.7778 39.8887 45.0468 39.8887 40.4444C39.8887 35.8421 48.222 26.5556 48.222 26.5556C48.222 26.5556 56.5553 35.8421 56.5553 40.4444Z" stroke="#2B50ED" stroke-width="2"/>
<path d="M48.2222 45.4444C45.4607 45.4444 43.2222 43.2059 43.2222 40.4444C43.2222 39.1026 43.7508 37.8842 44.6111 36.9861" stroke="#2B50ED" stroke-width="2" stroke-linecap="round"/>
<circle cx="31.0001" cy="31" r="3.94444" stroke="#2B50ED"/>
</svg>
