<svg xmlns="http://www.w3.org/2000/svg" width="62" height="62" id="warm_2" viewBox="0 0 62 62" fill="none">
  <path d="M31.786 15.2795C30.7122 11.3494 31.8297 9.47159 32.441 8.72924C33.3041 7.68122 28.9563 11.0349 27.0698 13.9694C24.7118 17.6375 25.3668 23.6637 26.6768 27.4629C27.9869 31.262 27.5939 35.5851 23.2707 35.5851C18.9476 35.5851 22.4847 30.345 22.0917 29.9519C21.6987 29.5589 18.1616 32.703 16.9825 37.8122C15.8035 42.9214 19.0786 48.6856 22.4847 50.2576C25.8908 51.8297 28.1179 51.1746 28.7729 50.2576C29.4279 49.3406 27.8559 49.4716 27.5939 48.0305C27.3319 46.5895 28.6419 43.8384 32.179 41.4803C35.0087 39.5939 36.0655 36.7642 36.2401 35.5851C37.2008 36.8515 39.0174 40.3537 38.5982 44.2314C38.0742 49.0786 31.917 50.3886 32.965 51.1747C34.0131 51.9607 40.3013 51.0436 43.9694 46.8515C47.6375 42.6594 47.2445 34.1441 43.9694 28.6419C40.6943 23.1397 32.8599 19.2096 31.786 15.2795Z" stroke="#2B50ED" stroke-width="2" stroke-linecap="round"/>
  <path d="M9.77734 9.9083L22.5763 22.7467M52.2228 52.4847L46.8681 47.1135" stroke="#2B50ED" stroke-linecap="round"/>
  <circle cx="31" cy="31" r="30" stroke="#2B50ED"/>
</svg>