<svg width="60" height="60" id="water_2" viewBox="0 0 60 60" fill="none" xmlns="http://www.w3.org/2000/svg">
<path d="M35.0205 21.8483H53.5681M55.5553 27.4126H58.9999V39.7335H55.5553V27.4126ZM53.5681 29.1349H48.1363V27.0152H41.1147V29.1349C40.4964 29.1349 38.73 29.1349 36.6103 29.1349C33.1657 29.1349 30.1186 32.3145 29.9861 36.024C29.8801 38.9916 29.942 40.5284 29.9861 40.9259H39.7898C39.834 39.9985 40.3463 38.1437 42.042 38.1437C43.7378 38.1437 50.4326 38.1437 53.5681 38.1437V29.1349ZM28.1313 43.4007H41.5121V46.9778H28.1313V43.4007Z" stroke="#2B50ED" stroke-linecap="round"/>
<path d="M44.4268 26.8827V21.8483" stroke="#2B50ED" stroke-linecap="round"/>
<path d="M26.6742 25.5579C27.997 26.5867 29.7213 25.4254 29.3239 23.9681C28.9264 22.5108 28.264 19.4637 27.2041 18.4038C26.1443 17.344 23.6271 15.6217 20.58 14.2969C18.1423 13.237 15.1482 13.8994 12.366 14.2969L8.1266 10.9848C6.40429 9.79245 -0.34128 17.344 1.23749 19.0663C2.40335 20.3381 4.19627 22.2458 4.947 23.0407C4.90284 23.5707 5.06741 24.7449 5.60942 25.5579C6.66924 27.1477 7.37586 28.0751 7.86163 28.87M26.6742 25.5579C25.4818 24.6305 24.0245 23.4382 22.3023 22.2458C20.58 21.0535 18.4602 23.3057 19.7851 24.6305M26.6742 25.5579C26.895 25.9554 27.0981 26.9887 26.1443 27.9426C25.1904 28.8965 23.9804 28.6933 23.4946 28.4725M19.7851 24.6305C21.042 25.8874 21.6398 26.6178 23.4946 28.4725M19.7851 24.6305C19.211 24.4539 18.5927 24.1006 17.6653 24.4981C16.7379 24.8955 16.738 25.867 16.738 26.2203M23.4946 28.4725C24.2837 29.2616 24.0245 30.1948 23.0971 30.9897C22.1697 31.7846 20.58 31.2547 20.58 31.2547M20.58 31.2547C19.5201 29.7974 17.7978 27.4127 16.738 26.2203M20.58 31.2547C21.1099 32.1821 20.5799 32.8445 20.05 33.2419C19.5201 33.6394 18.0628 33.7277 17.7978 33.5069M16.738 26.2203C15.6781 25.028 12.7634 26.8827 14.3532 28.87M14.3532 28.87C15.3635 30.1328 16.6055 31.6521 17.7978 33.5069M14.3532 28.87C11.7035 27.8101 11.6842 29.9825 12.193 31C12.7018 32.0176 13.5584 33.5069 15.1482 35.3616C16.738 37.2164 18.9902 35.3617 17.7978 33.5069" stroke="#2B50ED" stroke-linecap="round"/>
<path d="M23.7596 13.5019L25.0844 12.3096C24.5103 11.4705 23.6271 9.47446 24.687 8.20263C26.0118 6.61283 27.8666 4.22814 29.4564 2.63835C30.7282 1.36651 34.3141 2.28506 35.948 2.90331L31.0462 8.20263L34.2257 11.2497L39.6575 6.0829C40.2758 7.36357 41.2208 10.2959 40.055 11.7797C38.5977 13.6344 37.0079 16.2841 35.4181 17.4764C34.1463 18.4303 31.5319 17.8739 30.3837 17.4764L29.4564 18.1388M12.2336 35.8915C11.1737 36.9956 9.08049 38.9122 8.12662 39.866C5.07952 42.9131 -0.219813 38.0113 2.42985 35.3616C4.01966 33.7718 6.0069 31.9612 6.8018 31.2546" stroke="#2B50ED" stroke-width="2" stroke-linecap="round"/>
<path d="M38.3326 54.165C38.3326 55.9759 36.8498 57.4439 35.0206 57.4439C33.1914 57.4439 31.7085 55.9759 31.7085 54.165C31.7085 52.3541 35.0206 48.7001 35.0206 48.7001C35.0206 48.7001 38.3326 52.3541 38.3326 54.165Z" stroke="#2B50ED"/>
<circle cx="44.5" cy="22" r="1" stroke="#2B50ED" stroke-width="2"/>
</svg>
