<svg width="60" height="60" id="water_1" viewBox="0 0 60 60" fill="none" xmlns="http://www.w3.org/2000/svg">
<path d="M17.8751 10.5016L10 17.1527L12.4706 19.5281L15.7133 17.6277V27.3113H43.6621V17.6277L46.5959 19.5281L49.6842 17.1527L29.7649 1L22.0442 6.8593V3.21703H17.8751V10.5016Z" stroke="#3966F4" stroke-linecap="round"/>
<path d="M26.2806 14.2281H20.1753V23.386H26.2806V14.2281Z" stroke="#3966F4" stroke-linecap="round"/>
<path d="M41.5437 55.9473C41.5437 57.6333 40.177 59 38.4911 59C36.8052 59 35.4385 57.6333 35.4385 55.9473C35.4385 54.2614 38.4911 50.8596 38.4911 50.8596C38.4911 50.8596 41.5437 54.2614 41.5437 55.9473Z" stroke="#2B50ED" stroke-width="2"/>
<path d="M25.4414 39.2556C25.4414 41.631 22.0443 40.9975 22.0443 39.2556V31.0209H15.7134V39.2556C15.7134 41.631 16.331 46.3818 23.7429 46.8568C31.1547 47.3319 31.7724 40.8392 31.9268 38.7805C32.0812 36.7218 35.1694 37.1969 35.1694 38.7805V45.2733C35.1694 45.78 34.243 46.2234 33.7797 46.3817V47.807H42.4269V46.3817C42.118 46.3817 41.5004 46.2551 41.5004 45.7483V37.9887C41.5004 36.7219 40.5739 31.0209 33.7797 31.0209C26.9855 31.0209 25.4414 36.8802 25.4414 39.2556Z" stroke="#3966F4" stroke-width="2" stroke-linecap="round"/>
</svg>
