<svg width="60" height="60" id="water_3" viewBox="0 0 60 60" fill="none" xmlns="http://www.w3.org/2000/svg">
<path d="M40.0173 41.2036C40.408 40.8695 41.0477 40.8695 41.444 41.2036L42.3385 41.9736C42.5084 42.1208 42.8254 42.2397 43.0519 42.2397H44.0143C44.6144 42.2397 45.107 42.7323 45.107 43.3325V44.2951C45.107 44.5159 45.2259 44.8387 45.3731 45.0085L46.143 45.9031C46.477 46.2938 46.477 46.9336 46.143 47.33L45.3731 48.2246C45.2259 48.3945 45.107 48.7116 45.107 48.938V49.9006C45.107 50.5008 44.6144 50.9934 44.0143 50.9934H43.0519C42.8311 50.9934 42.5084 51.1123 42.3385 51.2595L41.444 52.0296C41.0534 52.3636 40.4136 52.3636 40.0173 52.0296L39.1228 51.2595C38.953 51.1123 38.6359 50.9934 38.4095 50.9934H37.4301C36.8299 50.9934 36.3374 50.5008 36.3374 49.9006V48.9324C36.3374 48.7116 36.2185 48.3945 36.077 48.2246L35.3127 47.3243C34.9843 46.9336 34.9843 46.2995 35.3127 45.9088L36.077 45.0085C36.2185 44.8387 36.3374 44.5216 36.3374 44.3007V43.3269C36.3374 42.7267 36.8299 42.2341 37.4301 42.2341H38.4095C38.6303 42.2341 38.953 42.1152 39.1228 41.9679L40.0173 41.2036Z" stroke="#2B50ED" stroke-width="2" stroke-linecap="round" stroke-linejoin="round"/>
<path d="M36.6271 57.4709L36.4277 57.5197L37.7413 53.8078L39.2861 54.2217L37.9236 58.0716L37.5562 57.7199L37.1599 57.3405L36.6271 57.4709Z" stroke="#2B50ED" stroke-width="2"/>
<path d="M43.9171 53.8077L45.2308 57.5196L45.0314 57.4708L44.4985 57.3405L44.1022 57.7198L43.7348 58.0715L42.3724 54.2216L43.9171 53.8077Z" stroke="#2B50ED" stroke-width="2"/>
<path d="M42.0075 19.2504C41.5916 24.8655 35.8379 30.2727 30.2228 30.2727C24.6076 30.2727 19.6165 24.7269 18.5766 19.2504C17.5368 13.774 19.1312 6.21787 22.0427 3.44498C24.9543 0.672092 34.1047 -0.159775 38.3335 3.16769C42.5622 6.49516 42.4234 13.6353 42.0075 19.2504Z" stroke="#2B50ED" stroke-linecap="round"/>
<path d="M18.7153 11.0704C18.9464 12.4568 19.7829 15.2297 21.2803 15.2297C23.152 15.2297 23.3599 11.0704 30.2228 11.0704C37.0857 11.0704 37.7096 15.2297 39.2347 15.2297C40.4548 15.2297 41.6379 12.4568 42.0769 11.0704M27.3113 8.22815L26.2715 6.14848C26.9416 5.91741 28.67 5.45526 30.2228 5.45526C31.7756 5.45526 33.5965 5.91741 34.3128 6.14848L33.4116 8.22815C32.8802 8.11261 31.4983 7.88154 30.2228 7.88154C28.9473 7.88154 27.7503 8.11261 27.3113 8.22815Z" stroke="#2B50ED" stroke-linecap="round"/>
<path d="M49.2173 51.6903C51.28 50.8848 53.774 49.3507 53.8618 47.3952C53.9312 45.8514 51.3247 37.9951 49.2173 36.165C46.583 33.8774 38.8882 30.2033 38.1257 29.9261C37.3632 29.6488 36.462 30.9659 35.2142 31.5205C33.9664 32.075 32.3719 32.075 31.956 33.1149C31.6232 33.9467 30.8468 36.0957 30.5002 37.0662C30.0381 36.0033 29.0722 33.7249 28.9058 33.1149C28.6978 32.3523 27.7966 32.579 25.7863 31.5205C23.776 30.4619 23.6373 29.5794 22.5975 29.9261C21.5577 30.2727 12.2685 35.2638 10.6048 37.0662C8.94102 38.8686 7 44.6223 7 47.3952C7 49.6135 10.1195 52.0904 13.1697 52.1785C16.2198 52.2665 25.0137 52.2759 32.4413 52.3198" stroke="#2B50ED" stroke-linecap="round"/>
</svg>
