<svg width="24" height="24" id="whats" viewBox="0 0 24 24" fill="none" xmlns="http://www.w3.org/2000/svg">
<g clip-path="url(#clip0_655_1068)">
<path d="M12 24C14.3734 24 16.6935 23.2962 18.6668 21.9776C20.6402 20.6591 22.1783 18.7849 23.0866 16.5922C23.9948 14.3995 24.2324 11.9867 23.7694 9.65892C23.3064 7.33115 22.1635 5.19295 20.4853 3.51472C18.8071 1.83649 16.6689 0.693605 14.3411 0.230582C12.0133 -0.232441 9.60051 0.00519945 7.4078 0.913451C5.21509 1.8217 3.34094 3.35977 2.02236 5.33316C0.703788 7.30655 0 9.62663 0 12C0 15.1826 1.26428 18.2349 3.51472 20.4853C5.76516 22.7357 8.8174 24 12 24Z" fill="#24D366"/>
<path fill-rule="evenodd" clip-rule="evenodd" d="M12.3955 18.6763H12.3927C11.2013 18.6763 10.0289 18.3778 8.98255 17.8079L5.19873 18.8001L6.21109 15.1025C5.42719 13.7417 5.11411 12.1603 5.32038 10.6034C5.52665 9.04659 6.24076 7.60128 7.35199 6.49157C8.46322 5.38186 9.90951 4.66973 11.4666 4.46558C13.0238 4.26144 14.6047 4.57669 15.9645 5.36245C17.3242 6.14821 18.3867 7.3606 18.9874 8.81166C19.588 10.2627 19.6931 11.8714 19.2865 13.3883C18.8799 14.9052 17.9842 16.2455 16.7383 17.2016C15.4924 18.1577 13.9659 18.676 12.3955 18.6763ZM9.15764 16.5158L9.37582 16.6445C10.2896 17.1858 11.3322 17.4714 12.3944 17.4714C13.7093 17.4718 14.9871 17.0352 16.0269 16.2303C17.0667 15.4254 17.8096 14.2978 18.1387 13.0247C18.4678 11.7516 18.3646 10.4053 17.8452 9.19727C17.3258 7.98926 16.4197 6.9881 15.2693 6.35115C14.1189 5.7142 12.7895 5.47759 11.49 5.6785C10.1905 5.87941 8.99458 6.50645 8.09026 7.46106C7.18595 8.41567 6.62449 9.64373 6.49415 10.9522C6.36381 12.2607 6.67196 13.5753 7.37019 14.6896L7.51091 14.9138L6.91091 17.1021L9.15764 16.5158ZM15.9905 13.2376C15.9458 13.1634 15.8269 13.1187 15.6491 13.0292C15.4713 12.9398 14.5942 12.5089 14.4305 12.4494C14.2669 12.3899 14.148 12.3599 14.0291 12.5389C13.9102 12.7178 13.5687 13.1192 13.4645 13.2381C13.3604 13.357 13.2567 13.3723 13.0784 13.2829C12.5526 13.0735 12.0673 12.7741 11.6444 12.3981C11.2547 12.0374 10.9208 11.6208 10.6533 11.1621C10.5491 10.9838 10.6424 10.8894 10.7313 10.7983C10.8115 10.7181 10.9096 10.5899 10.9985 10.4858C11.0719 10.3957 11.132 10.2956 11.1769 10.1885C11.2008 10.1393 11.2119 10.0849 11.2093 10.0303C11.2067 9.97575 11.1905 9.92267 11.1622 9.87595C11.1175 9.78649 10.7613 8.90886 10.6124 8.55213C10.4678 8.20468 10.3205 8.25158 10.2115 8.24613C10.1024 8.24068 9.98837 8.23958 9.87 8.23958C9.77961 8.2419 9.69068 8.26292 9.60882 8.30132C9.52696 8.33971 9.45394 8.39465 9.39437 8.46268C9.19277 8.65369 9.03316 8.8846 8.92573 9.14069C8.81829 9.39679 8.76538 9.67246 8.77037 9.95013C8.82842 10.6226 9.08149 11.2636 9.49855 11.7943C10.2632 12.9406 11.3128 13.8685 12.5444 14.4867C12.8762 14.6296 13.2154 14.7549 13.5605 14.8619C13.9243 14.9727 14.3089 14.997 14.6836 14.9329C14.9318 14.8822 15.1669 14.7808 15.3739 14.6349C15.581 14.489 15.7557 14.3019 15.8869 14.0852C16.0036 13.8187 16.0399 13.5239 15.9911 13.237L15.9905 13.2376Z" fill="#FDFDFD"/>
</g>
<defs>
<clipPath id="clip0_655_1068">
<rect width="24" height="24" fill="white"/>
</clipPath>
</defs>
</svg>
